<mxfile host="app.diagrams.net" agent="Mozilla/5.0 (Windows NT 10.0; Win64; x64) AppleWebKit/537.36 (KHTML, like Gecko) Chrome/136.0.0.0 Safari/537.36" version="27.0.9">
  <diagram id="R2lEEEUBdFMjLlhIrx00" name="Page-1">
    <mxGraphModel dx="1575" dy="940" grid="1" gridSize="10" guides="1" tooltips="1" connect="1" arrows="1" fold="1" page="1" pageScale="1" pageWidth="850" pageHeight="1100" math="0" shadow="0" extFonts="Permanent Marker^https://fonts.googleapis.com/css?family=Permanent+Marker">
      <root>
        <mxCell id="0" />
        <mxCell id="1" parent="0" />
        <mxCell id="8J3hiLZfbwrU0nDgwQFz-8" value="" style="edgeStyle=none;curved=1;rounded=0;orthogonalLoop=1;jettySize=auto;html=1;fontSize=12;startSize=8;endSize=8;" edge="1" parent="1" source="8J3hiLZfbwrU0nDgwQFz-1" target="8J3hiLZfbwrU0nDgwQFz-7">
          <mxGeometry relative="1" as="geometry" />
        </mxCell>
        <mxCell id="8J3hiLZfbwrU0nDgwQFz-16" style="edgeStyle=none;curved=1;rounded=0;orthogonalLoop=1;jettySize=auto;html=1;fontSize=12;startSize=8;endSize=8;" edge="1" parent="1" source="8J3hiLZfbwrU0nDgwQFz-1" target="8J3hiLZfbwrU0nDgwQFz-15">
          <mxGeometry relative="1" as="geometry" />
        </mxCell>
        <mxCell id="8J3hiLZfbwrU0nDgwQFz-18" style="edgeStyle=none;curved=1;rounded=0;orthogonalLoop=1;jettySize=auto;html=1;entryX=0.5;entryY=1;entryDx=0;entryDy=0;fontSize=12;startSize=8;endSize=8;" edge="1" parent="1" source="8J3hiLZfbwrU0nDgwQFz-1" target="8J3hiLZfbwrU0nDgwQFz-14">
          <mxGeometry relative="1" as="geometry" />
        </mxCell>
        <mxCell id="8J3hiLZfbwrU0nDgwQFz-19" style="edgeStyle=none;curved=1;rounded=0;orthogonalLoop=1;jettySize=auto;html=1;fontSize=12;startSize=8;endSize=8;" edge="1" parent="1" source="8J3hiLZfbwrU0nDgwQFz-1" target="8J3hiLZfbwrU0nDgwQFz-13">
          <mxGeometry relative="1" as="geometry" />
        </mxCell>
        <mxCell id="8J3hiLZfbwrU0nDgwQFz-20" style="edgeStyle=none;curved=1;rounded=0;orthogonalLoop=1;jettySize=auto;html=1;fontSize=12;startSize=8;endSize=8;" edge="1" parent="1" source="8J3hiLZfbwrU0nDgwQFz-1" target="8J3hiLZfbwrU0nDgwQFz-10">
          <mxGeometry relative="1" as="geometry" />
        </mxCell>
        <mxCell id="8J3hiLZfbwrU0nDgwQFz-40" value="" style="edgeStyle=none;curved=1;rounded=0;orthogonalLoop=1;jettySize=auto;html=1;fontSize=12;startSize=8;endSize=8;endArrow=none;endFill=0;startFill=0;startArrow=ERmandOne;" edge="1" parent="1" source="8J3hiLZfbwrU0nDgwQFz-1" target="8J3hiLZfbwrU0nDgwQFz-36">
          <mxGeometry relative="1" as="geometry" />
        </mxCell>
        <mxCell id="8J3hiLZfbwrU0nDgwQFz-42" value="" style="edgeStyle=none;curved=1;rounded=0;orthogonalLoop=1;jettySize=auto;html=1;fontSize=12;startSize=8;endSize=8;endArrow=none;endFill=0;startArrow=ERmandOne;startFill=0;" edge="1" parent="1" source="8J3hiLZfbwrU0nDgwQFz-1" target="8J3hiLZfbwrU0nDgwQFz-39">
          <mxGeometry relative="1" as="geometry" />
        </mxCell>
        <mxCell id="8J3hiLZfbwrU0nDgwQFz-1" value="User" style="rounded=0;whiteSpace=wrap;html=1;fontSize=22;" vertex="1" parent="1">
          <mxGeometry x="270" y="340" width="120" height="60" as="geometry" />
        </mxCell>
        <mxCell id="8J3hiLZfbwrU0nDgwQFz-2" value="Inbox" style="rounded=0;whiteSpace=wrap;html=1;fontSize=22;" vertex="1" parent="1">
          <mxGeometry x="270" y="600" width="120" height="60" as="geometry" />
        </mxCell>
        <mxCell id="8J3hiLZfbwrU0nDgwQFz-34" value="" style="edgeStyle=none;curved=1;rounded=0;orthogonalLoop=1;jettySize=auto;html=1;fontSize=12;startSize=8;endSize=8;" edge="1" parent="1" source="8J3hiLZfbwrU0nDgwQFz-3" target="8J3hiLZfbwrU0nDgwQFz-22">
          <mxGeometry relative="1" as="geometry" />
        </mxCell>
        <mxCell id="8J3hiLZfbwrU0nDgwQFz-44" value="" style="edgeStyle=none;curved=1;rounded=0;orthogonalLoop=1;jettySize=auto;html=1;fontSize=12;startSize=8;endSize=8;endArrow=none;endFill=0;startArrow=ERone;startFill=0;" edge="1" parent="1" source="8J3hiLZfbwrU0nDgwQFz-3" target="8J3hiLZfbwrU0nDgwQFz-38">
          <mxGeometry relative="1" as="geometry" />
        </mxCell>
        <mxCell id="8J3hiLZfbwrU0nDgwQFz-3" value="Outbox" style="rounded=0;whiteSpace=wrap;html=1;fontSize=22;" vertex="1" parent="1">
          <mxGeometry x="700" y="340" width="120" height="60" as="geometry" />
        </mxCell>
        <mxCell id="8J3hiLZfbwrU0nDgwQFz-46" value="" style="edgeStyle=none;curved=1;rounded=0;orthogonalLoop=1;jettySize=auto;html=1;fontSize=12;startSize=8;endSize=8;startArrow=ERzeroToMany;startFill=0;endArrow=none;" edge="1" parent="1" source="8J3hiLZfbwrU0nDgwQFz-4" target="8J3hiLZfbwrU0nDgwQFz-37">
          <mxGeometry relative="1" as="geometry" />
        </mxCell>
        <mxCell id="8J3hiLZfbwrU0nDgwQFz-49" style="edgeStyle=none;curved=1;rounded=0;orthogonalLoop=1;jettySize=auto;html=1;entryX=0;entryY=0;entryDx=0;entryDy=0;fontSize=12;startSize=8;endSize=8;" edge="1" parent="1" source="8J3hiLZfbwrU0nDgwQFz-4" target="8J3hiLZfbwrU0nDgwQFz-25">
          <mxGeometry relative="1" as="geometry" />
        </mxCell>
        <mxCell id="8J3hiLZfbwrU0nDgwQFz-4" value="Email" style="rounded=0;whiteSpace=wrap;html=1;fontSize=22;" vertex="1" parent="1">
          <mxGeometry x="700" y="600" width="120" height="60" as="geometry" />
        </mxCell>
        <mxCell id="8J3hiLZfbwrU0nDgwQFz-7" value="ID" style="ellipse;whiteSpace=wrap;html=1;fontSize=22;" vertex="1" parent="1">
          <mxGeometry x="280" y="200" width="120" height="80" as="geometry" />
        </mxCell>
        <mxCell id="8J3hiLZfbwrU0nDgwQFz-10" value="First Name" style="ellipse;whiteSpace=wrap;html=1;fontSize=22;" vertex="1" parent="1">
          <mxGeometry x="140" y="210" width="120" height="80" as="geometry" />
        </mxCell>
        <mxCell id="8J3hiLZfbwrU0nDgwQFz-12" value="Last Name" style="ellipse;whiteSpace=wrap;html=1;fontSize=22;" vertex="1" parent="1">
          <mxGeometry x="60" y="300" width="120" height="80" as="geometry" />
        </mxCell>
        <mxCell id="8J3hiLZfbwrU0nDgwQFz-13" value="Phone Number" style="ellipse;whiteSpace=wrap;html=1;fontSize=22;" vertex="1" parent="1">
          <mxGeometry x="200" y="110" width="120" height="80" as="geometry" />
        </mxCell>
        <mxCell id="8J3hiLZfbwrU0nDgwQFz-14" value="Email Address" style="ellipse;whiteSpace=wrap;html=1;fontSize=22;" vertex="1" parent="1">
          <mxGeometry x="365" y="110" width="120" height="80" as="geometry" />
        </mxCell>
        <mxCell id="8J3hiLZfbwrU0nDgwQFz-15" value="Birth of Date" style="ellipse;whiteSpace=wrap;html=1;fontSize=22;" vertex="1" parent="1">
          <mxGeometry x="425" y="200" width="120" height="80" as="geometry" />
        </mxCell>
        <mxCell id="8J3hiLZfbwrU0nDgwQFz-21" style="edgeStyle=none;curved=1;rounded=0;orthogonalLoop=1;jettySize=auto;html=1;entryX=0.967;entryY=0.688;entryDx=0;entryDy=0;entryPerimeter=0;fontSize=12;startSize=8;endSize=8;" edge="1" parent="1" source="8J3hiLZfbwrU0nDgwQFz-1" target="8J3hiLZfbwrU0nDgwQFz-12">
          <mxGeometry relative="1" as="geometry" />
        </mxCell>
        <mxCell id="8J3hiLZfbwrU0nDgwQFz-22" value="ID" style="ellipse;whiteSpace=wrap;html=1;fontSize=22;" vertex="1" parent="1">
          <mxGeometry x="710" y="200" width="120" height="80" as="geometry" />
        </mxCell>
        <mxCell id="8J3hiLZfbwrU0nDgwQFz-24" value="ID" style="ellipse;whiteSpace=wrap;html=1;fontSize=22;" vertex="1" parent="1">
          <mxGeometry x="130" y="680" width="120" height="80" as="geometry" />
        </mxCell>
        <mxCell id="8J3hiLZfbwrU0nDgwQFz-25" value="ID" style="ellipse;whiteSpace=wrap;html=1;fontSize=22;" vertex="1" parent="1">
          <mxGeometry x="830" y="720" width="120" height="80" as="geometry" />
        </mxCell>
        <mxCell id="8J3hiLZfbwrU0nDgwQFz-26" value="Subject" style="ellipse;whiteSpace=wrap;html=1;fontSize=22;" vertex="1" parent="1">
          <mxGeometry x="690" y="720" width="120" height="80" as="geometry" />
        </mxCell>
        <mxCell id="8J3hiLZfbwrU0nDgwQFz-27" value="Body" style="ellipse;whiteSpace=wrap;html=1;fontSize=22;" vertex="1" parent="1">
          <mxGeometry x="545" y="730" width="120" height="80" as="geometry" />
        </mxCell>
        <mxCell id="8J3hiLZfbwrU0nDgwQFz-28" value="Creation Date" style="ellipse;whiteSpace=wrap;html=1;fontSize=22;" vertex="1" parent="1">
          <mxGeometry x="860" y="620" width="120" height="80" as="geometry" />
        </mxCell>
        <mxCell id="8J3hiLZfbwrU0nDgwQFz-29" style="edgeStyle=none;curved=1;rounded=0;orthogonalLoop=1;jettySize=auto;html=1;entryX=0.025;entryY=0.413;entryDx=0;entryDy=0;entryPerimeter=0;fontSize=12;startSize=8;endSize=8;" edge="1" parent="1" source="8J3hiLZfbwrU0nDgwQFz-4" target="8J3hiLZfbwrU0nDgwQFz-28">
          <mxGeometry relative="1" as="geometry" />
        </mxCell>
        <mxCell id="8J3hiLZfbwrU0nDgwQFz-31" style="edgeStyle=none;curved=1;rounded=0;orthogonalLoop=1;jettySize=auto;html=1;entryX=0.567;entryY=0;entryDx=0;entryDy=0;entryPerimeter=0;fontSize=12;startSize=8;endSize=8;" edge="1" parent="1" source="8J3hiLZfbwrU0nDgwQFz-4" target="8J3hiLZfbwrU0nDgwQFz-26">
          <mxGeometry relative="1" as="geometry" />
        </mxCell>
        <mxCell id="8J3hiLZfbwrU0nDgwQFz-32" style="edgeStyle=none;curved=1;rounded=0;orthogonalLoop=1;jettySize=auto;html=1;entryX=0.742;entryY=0.025;entryDx=0;entryDy=0;entryPerimeter=0;fontSize=12;startSize=8;endSize=8;" edge="1" parent="1" source="8J3hiLZfbwrU0nDgwQFz-4" target="8J3hiLZfbwrU0nDgwQFz-27">
          <mxGeometry relative="1" as="geometry" />
        </mxCell>
        <mxCell id="8J3hiLZfbwrU0nDgwQFz-35" style="edgeStyle=none;curved=1;rounded=0;orthogonalLoop=1;jettySize=auto;html=1;entryX=0.644;entryY=0.048;entryDx=0;entryDy=0;entryPerimeter=0;fontSize=12;startSize=8;endSize=8;" edge="1" parent="1" source="8J3hiLZfbwrU0nDgwQFz-2" target="8J3hiLZfbwrU0nDgwQFz-24">
          <mxGeometry relative="1" as="geometry" />
        </mxCell>
        <mxCell id="8J3hiLZfbwrU0nDgwQFz-41" value="" style="edgeStyle=none;curved=1;rounded=0;orthogonalLoop=1;jettySize=auto;html=1;fontSize=12;startSize=8;endSize=8;endArrow=ERmandOne;endFill=0;" edge="1" parent="1" source="8J3hiLZfbwrU0nDgwQFz-36" target="8J3hiLZfbwrU0nDgwQFz-2">
          <mxGeometry relative="1" as="geometry" />
        </mxCell>
        <mxCell id="8J3hiLZfbwrU0nDgwQFz-36" value="Has" style="rhombus;whiteSpace=wrap;html=1;fontSize=22;" vertex="1" parent="1">
          <mxGeometry x="290" y="460" width="80" height="80" as="geometry" />
        </mxCell>
        <mxCell id="8J3hiLZfbwrU0nDgwQFz-47" value="" style="edgeStyle=none;curved=1;rounded=0;orthogonalLoop=1;jettySize=auto;html=1;fontSize=12;startSize=8;endSize=8;endArrow=ERone;endFill=0;" edge="1" parent="1" source="8J3hiLZfbwrU0nDgwQFz-37" target="8J3hiLZfbwrU0nDgwQFz-2">
          <mxGeometry relative="1" as="geometry" />
        </mxCell>
        <mxCell id="8J3hiLZfbwrU0nDgwQFz-37" value="Receives" style="rhombus;whiteSpace=wrap;html=1;fontSize=22;" vertex="1" parent="1">
          <mxGeometry x="500" y="580" width="120" height="100" as="geometry" />
        </mxCell>
        <mxCell id="8J3hiLZfbwrU0nDgwQFz-45" value="" style="edgeStyle=none;curved=1;rounded=0;orthogonalLoop=1;jettySize=auto;html=1;fontSize=12;startSize=8;endSize=8;endArrow=ERzeroToMany;endFill=0;" edge="1" parent="1" source="8J3hiLZfbwrU0nDgwQFz-38" target="8J3hiLZfbwrU0nDgwQFz-4">
          <mxGeometry relative="1" as="geometry" />
        </mxCell>
        <mxCell id="8J3hiLZfbwrU0nDgwQFz-38" value="Sends" style="rhombus;whiteSpace=wrap;html=1;fontSize=22;" vertex="1" parent="1">
          <mxGeometry x="720" y="460" width="80" height="80" as="geometry" />
        </mxCell>
        <mxCell id="8J3hiLZfbwrU0nDgwQFz-43" value="" style="edgeStyle=none;curved=1;rounded=0;orthogonalLoop=1;jettySize=auto;html=1;fontSize=12;startSize=8;endSize=8;startArrow=none;startFill=0;endArrow=ERmandOne;endFill=0;" edge="1" parent="1" source="8J3hiLZfbwrU0nDgwQFz-39" target="8J3hiLZfbwrU0nDgwQFz-3">
          <mxGeometry relative="1" as="geometry" />
        </mxCell>
        <mxCell id="8J3hiLZfbwrU0nDgwQFz-39" value="Has" style="rhombus;whiteSpace=wrap;html=1;fontSize=22;" vertex="1" parent="1">
          <mxGeometry x="530" y="330" width="80" height="80" as="geometry" />
        </mxCell>
      </root>
    </mxGraphModel>
  </diagram>
</mxfile>
